<svg width="23" height="24" viewBox="0 0 23 24" fill="none" xmlns="http://www.w3.org/2000/svg">
<path d="M11.7999 0.800781C12.1711 0.800781 12.5276 0.947501 12.7901 1.20996L22.5899 11.0098C22.8449 11.2738 22.9857 11.628 22.9825 11.9951C22.9792 12.3621 22.8319 12.7131 22.5723 12.9727C22.3128 13.2322 21.9618 13.3796 21.5948 13.3828C21.2279 13.386 20.8744 13.245 20.6104 12.9902L20.2002 12.5801V21.7998C20.2002 22.1711 20.0526 22.5275 19.7901 22.79C19.5275 23.0526 19.1712 23.2002 18.7999 23.2002H16.0001C15.6287 23.2002 15.2724 23.0526 15.0098 22.79C14.7473 22.5275 14.5997 22.1711 14.5997 21.7998V19C14.5997 18.6287 14.4521 18.2723 14.1895 18.0098C13.9271 17.7475 13.5713 17.5997 13.2002 17.5996H10.3995C10.0284 17.5997 9.67264 17.7475 9.41021 18.0098C9.14766 18.2723 9.00005 18.6287 9.00005 19V21.7998C9.00005 22.1711 8.85245 22.5275 8.5899 22.79C8.32735 23.0526 7.97096 23.2002 7.59966 23.2002H4.79986C4.42856 23.2002 4.07217 23.0526 3.80962 22.79C3.54714 22.5275 3.39947 22.1711 3.39947 21.7998V12.5801L2.98931 12.9902C2.72532 13.245 2.37182 13.386 2.00494 13.3828C1.6379 13.3796 1.28696 13.2322 1.0274 12.9727C0.767862 12.7131 0.620471 12.3621 0.617241 11.9951C0.614051 11.628 0.754797 11.2738 1.00982 11.0098L10.8096 1.20996C11.0722 0.947506 11.4286 0.800786 11.7999 0.800781Z" fill="#3CE3F6"/>
</svg>
