<svg width="29" height="28" viewBox="0 0 29 28" fill="none" xmlns="http://www.w3.org/2000/svg">
<path d="M14.1698 2.72486C14.5626 2.40451 15.1416 2.42711 15.5077 2.79322L26.0077 13.2932L26.076 13.3694C26.3961 13.7622 26.3737 14.3413 26.0077 14.7073C25.6417 15.0732 25.0625 15.0957 24.6698 14.7756L24.5936 14.7073L23.9676 14.0813V23.3333C23.9675 23.9076 23.739 24.4593 23.3329 24.8655C22.9266 25.2717 22.3751 25.5002 21.8006 25.5003H7.80064C7.22616 25.5003 6.67471 25.2716 6.26841 24.8655C5.86229 24.4593 5.63377 23.9077 5.63364 23.3333V14.0813L5.00767 14.7073C4.61724 15.0976 3.98411 15.0974 3.5936 14.7073C3.20313 14.3168 3.20322 13.6838 3.5936 13.2932L14.0936 2.79322L14.1698 2.72486ZM7.63364 12.0813V23.3333C7.63377 23.3772 7.65143 23.4203 7.68247 23.4514C7.7137 23.4825 7.75659 23.5003 7.80064 23.5003H11.3006C11.3447 23.5002 11.3876 23.4825 11.4188 23.4514C11.4498 23.4203 11.4675 23.3772 11.4676 23.3333V18.6672C11.4676 18.0928 11.6954 17.5413 12.1014 17.135C12.5077 16.7288 13.0591 16.5003 13.6336 16.5003H15.9676C16.5421 16.5004 17.0936 16.7288 17.4999 17.135C17.9058 17.5413 18.1336 18.0929 18.1336 18.6672V23.3333C18.1338 23.3772 18.1514 23.4203 18.1825 23.4514C18.2137 23.4825 18.2566 23.5003 18.3006 23.5003H21.8006C21.8447 23.5002 21.8876 23.4825 21.9188 23.4514C21.9498 23.4203 21.9675 23.3772 21.9676 23.3333V12.0813L14.8006 4.91432L7.63364 12.0813ZM13.6336 18.5003C13.5896 18.5003 13.5476 18.518 13.5165 18.5491C13.4853 18.5803 13.4676 18.6231 13.4676 18.6672V23.3333C13.4676 23.389 13.4631 23.4451 13.4588 23.5003H16.1424C16.1382 23.4451 16.1337 23.389 16.1336 23.3333V18.6672C16.1336 18.6232 16.1159 18.5803 16.0848 18.5491C16.0537 18.518 16.0116 18.5004 15.9676 18.5003H13.6336Z" fill="#FAFAFA"/>
</svg>
