<svg width="28" height="28" viewBox="0 0 28 28" fill="none" xmlns="http://www.w3.org/2000/svg">
<path d="M14.001 3.66699C14.5531 3.66717 15.001 4.11482 15.001 4.66699V13H23.335L23.4365 13.0059C23.9407 13.0571 24.3348 13.4824 24.335 14C24.3348 14.5176 23.9407 14.9439 23.4365 14.9951L23.335 15H15.001V23.334C15.0006 23.8859 14.5529 24.3338 14.001 24.334C13.4491 24.3338 13.0013 23.8859 13.001 23.334V15H4.66797C4.11579 15 3.66814 14.5521 3.66797 14C3.66814 13.4479 4.11579 13 4.66797 13H13.001V4.66699C13.001 4.11482 13.4488 3.66717 14.001 3.66699Z" fill="#09090B"/>
</svg>
