<svg width="29" height="28" viewBox="0 0 29 28" fill="none" xmlns="http://www.w3.org/2000/svg">
<path d="M20.0029 2.7998C20.3742 2.7998 20.7306 2.94747 20.9932 3.20996C21.2557 3.47251 21.4033 3.82889 21.4033 4.2002V5.59961H22.8037C23.5461 5.59971 24.2582 5.89497 24.7832 6.41992C25.3083 6.94502 25.6035 7.65778 25.6035 8.40039V22.4004C25.6034 23.1429 25.3082 23.8549 24.7832 24.3799C24.2582 24.9049 23.5462 25.2001 22.8037 25.2002H6.00293C5.26046 25.2001 4.54845 24.9049 4.02344 24.3799C3.49843 23.8549 3.20323 23.1429 3.20312 22.4004V8.40039C3.20313 7.65778 3.49834 6.94502 4.02344 6.41992C4.54844 5.89497 5.26051 5.59971 6.00293 5.59961H7.40332V4.2002C7.40332 3.82889 7.55093 3.47251 7.81348 3.20996C8.07602 2.94747 8.43245 2.7998 8.80371 2.7998C9.17478 2.79991 9.53053 2.94762 9.79297 3.20996C10.0555 3.47251 10.2031 3.82889 10.2031 4.2002V5.59961H18.6035V4.2002C18.6035 3.82889 18.7511 3.47251 19.0137 3.20996C19.2761 2.94762 19.6319 2.79991 20.0029 2.7998ZM8.80371 9.7998C8.43245 9.7998 8.07602 9.94747 7.81348 10.21C7.55093 10.4725 7.40332 10.8289 7.40332 11.2002C7.40337 11.5714 7.55097 11.9279 7.81348 12.1904C8.076 12.4528 8.43255 12.5996 8.80371 12.5996H20.0029C20.3741 12.5996 20.7306 12.4528 20.9932 12.1904C21.2557 11.9279 21.4033 11.5714 21.4033 11.2002C21.4033 10.8289 21.2557 10.4725 20.9932 10.21C20.7306 9.94747 20.3742 9.7998 20.0029 9.7998H8.80371Z" fill="#3CE3F6"/>
</svg>
