<svg width="29" height="28" viewBox="0 0 29 28" fill="none" xmlns="http://www.w3.org/2000/svg">
<path d="M19.0674 2.5C19.6195 2.50018 20.0674 2.94782 20.0674 3.5V4.83301H22.5674L22.7324 4.83789C23.5562 4.87878 24.3378 5.22364 24.9238 5.80957C25.5489 6.43469 25.9004 7.28294 25.9004 8.16699V22.167C25.9003 23.0509 25.5489 23.8984 24.9238 24.5234C24.2988 25.1485 23.4513 25.4999 22.5674 25.5H6.2334C5.34946 25.4999 4.502 25.1485 3.87695 24.5234C3.25191 23.8984 2.90048 23.0509 2.90039 22.167V8.16699C2.90039 7.28294 3.25183 6.43469 3.87695 5.80957C4.50198 5.18463 5.34954 4.83309 6.2334 4.83301H8.7334V3.5C8.7334 2.94782 9.18126 2.50018 9.7334 2.5C10.2857 2.5 10.7334 2.94772 10.7334 3.5V4.83301H18.0674V3.5C18.0674 2.94772 18.5151 2.5 19.0674 2.5ZM6.2334 6.83301C5.87997 6.83309 5.54097 6.97376 5.29102 7.22363C5.04097 7.47368 4.90039 7.81337 4.90039 8.16699V22.167C4.90048 22.5205 5.04104 22.8594 5.29102 23.1094C5.54099 23.3593 5.87989 23.4999 6.2334 23.5H22.5674C22.9209 23.4999 23.2598 23.3593 23.5098 23.1094C23.7597 22.8594 23.9003 22.5205 23.9004 22.167V8.16699C23.9004 7.81337 23.7598 7.47368 23.5098 7.22363C23.2911 7.00502 23.0042 6.87022 22.6992 6.83984L22.5674 6.83301H20.0674V8.16699C20.0672 8.71902 19.6194 9.16682 19.0674 9.16699C18.5152 9.16699 18.0676 8.71913 18.0674 8.16699V6.83301H10.7334V8.16699C10.7332 8.71913 10.2856 9.16699 9.7334 9.16699C9.18137 9.16682 8.73357 8.71902 8.7334 8.16699V6.83301H6.2334ZM20.3359 11.8389C20.8401 11.8901 21.2332 12.3154 21.2334 12.833C21.2334 13.3508 20.8402 13.7769 20.3359 13.8281L20.2334 13.833H8.56738C8.0151 13.833 7.56738 13.3853 7.56738 12.833C7.56756 12.2809 8.01521 11.833 8.56738 11.833H20.2334L20.3359 11.8389Z" fill="#FAFAFA"/>
</svg>
